<svg xmlns="http://www.w3.org/2000/svg" version="1.1" xmlns:xlink="http://www.w3.org/1999/xlink" xmlns:svgjs="http://svgjs.dev/svgjs" width="2000" height="4000" preserveAspectRatio="none" viewBox="0 0 2000 4000"><g mask="url(&quot;#SvgjsMask1645&quot;)" fill="none"><use xlink:href="#SvgjsG1652" transform="translate(0, 0)" fill="rgba(124, 124, 125, 0.89)"></use><use xlink:href="#SvgjsG1652" transform="translate(0, 520)" fill="rgba(124, 124, 125, 0.89)"></use><use xlink:href="#SvgjsG1652" transform="translate(0, 1040)" fill="rgba(124, 124, 125, 0.89)"></use><use xlink:href="#SvgjsG1652" transform="translate(0, 1560)" fill="rgba(124, 124, 125, 0.89)"></use><use xlink:href="#SvgjsG1652" transform="translate(0, 2080)" fill="rgba(124, 124, 125, 0.89)"></use><use xlink:href="#SvgjsG1652" transform="translate(0, 2600)" fill="rgba(124, 124, 125, 0.89)"></use><use xlink:href="#SvgjsG1652" transform="translate(0, 3120)" fill="rgba(124, 124, 125, 0.89)"></use><use xlink:href="#SvgjsG1652" transform="translate(0, 3640)" fill="rgba(124, 124, 125, 0.89)"></use><use xlink:href="#SvgjsG1652" transform="translate(520, 0)" fill="rgba(124, 124, 125, 0.89)"></use><use xlink:href="#SvgjsG1652" transform="translate(520, 520)" fill="rgba(124, 124, 125, 0.89)"></use><use xlink:href="#SvgjsG1652" transform="translate(520, 1040)" fill="rgba(124, 124, 125, 0.89)"></use><use xlink:href="#SvgjsG1652" transform="translate(520, 1560)" fill="rgba(124, 124, 125, 0.89)"></use><use xlink:href="#SvgjsG1652" transform="translate(520, 2080)" fill="rgba(124, 124, 125, 0.89)"></use><use xlink:href="#SvgjsG1652" transform="translate(520, 2600)" fill="rgba(124, 124, 125, 0.89)"></use><use xlink:href="#SvgjsG1652" transform="translate(520, 3120)" fill="rgba(124, 124, 125, 0.89)"></use><use xlink:href="#SvgjsG1652" transform="translate(520, 3640)" fill="rgba(124, 124, 125, 0.89)"></use><use xlink:href="#SvgjsG1652" transform="translate(1040, 0)" fill="rgba(124, 124, 125, 0.89)"></use><use xlink:href="#SvgjsG1652" transform="translate(1040, 520)" fill="rgba(124, 124, 125, 0.89)"></use><use xlink:href="#SvgjsG1652" transform="translate(1040, 1040)" fill="rgba(124, 124, 125, 0.89)"></use><use xlink:href="#SvgjsG1652" transform="translate(1040, 1560)" fill="rgba(124, 124, 125, 0.89)"></use><use xlink:href="#SvgjsG1652" transform="translate(1040, 2080)" fill="rgba(124, 124, 125, 0.89)"></use><use xlink:href="#SvgjsG1652" transform="translate(1040, 2600)" fill="rgba(124, 124, 125, 0.89)"></use><use xlink:href="#SvgjsG1652" transform="translate(1040, 3120)" fill="rgba(124, 124, 125, 0.89)"></use><use xlink:href="#SvgjsG1652" transform="translate(1040, 3640)" fill="rgba(124, 124, 125, 0.89)"></use><use xlink:href="#SvgjsG1652" transform="translate(1560, 0)" fill="rgba(124, 124, 125, 0.89)"></use><use xlink:href="#SvgjsG1652" transform="translate(1560, 520)" fill="rgba(124, 124, 125, 0.89)"></use><use xlink:href="#SvgjsG1652" transform="translate(1560, 1040)" fill="rgba(124, 124, 125, 0.89)"></use><use xlink:href="#SvgjsG1652" transform="translate(1560, 1560)" fill="rgba(124, 124, 125, 0.89)"></use><use xlink:href="#SvgjsG1652" transform="translate(1560, 2080)" fill="rgba(124, 124, 125, 0.89)"></use><use xlink:href="#SvgjsG1652" transform="translate(1560, 2600)" fill="rgba(124, 124, 125, 0.89)"></use><use xlink:href="#SvgjsG1652" transform="translate(1560, 3120)" fill="rgba(124, 124, 125, 0.89)"></use><use xlink:href="#SvgjsG1652" transform="translate(1560, 3640)" fill="rgba(124, 124, 125, 0.89)"></use></g><defs><mask id="SvgjsMask1645"><rect width="2000" height="4000" fill="#ffffff"></rect></mask><g id="SvgjsG1648"><path d="M6.038 10.472H10.08v3.613c0 0.594 0.479 1.073 1.073 1.073s1.066-0.479 1.066-1.073V10.472c0.322 0 0.358-0.207 0.358-0.451V7.323l-3.384-1.652H2.004l-0.923-0.526c-0.3-0.169-0.679-0.061-0.844 0.232a0.613 0.613 0 0 0 0.234 0.844l1.458 0.838v7.026a1.071 1.071 0 0 0 1.073 1.073c0.587 0 1.066-0.479 1.065-1.073v-2.754L6 14.607c0.309 0.508 0.966 0.673 1.467 0.372a1.073 1.073 0 0 0 0.372-1.466l-1.803-3.041z m3.484-5.538l3.047 1.452v-0.573h2.476l0.908-1.96L9.522 0.791v4.143z" fill-rule="evenodd"></path></g><g id="SvgjsG1647"><path d="M2.752 7.711c0.292 0 0.539-0.241 0.539-0.533 0-0.293-0.247-0.534-0.539-0.534-0.289 0-0.539 0.241-0.539 0.534 0 0.292 0.249 0.533 0.539 0.533M0.016 8.499a0.062 0.062 0 0 1-0.016-0.04c0-0.03 0.028-0.054 0.058-0.055h1.705c0.082 0 0.149-0.066 0.149-0.148 0-0.064-0.028-0.107-0.091-0.143L0.279 7.379a0.097 0.097 0 0 1-0.048-0.086c0-0.026 0.008-0.05 0.028-0.071 0 0 4.046-3.576 13.009-0.11l2.461-1.2c0.024-0.012 0.052-0.02 0.078-0.02 0.107 0 0.193 0.086 0.193 0.193a0.208 0.208 0 0 1-0.028 0.098l-1.451 1.807 1.451 1.801c0.016 0.032 0.028 0.064 0.028 0.103 0 0.102-0.086 0.189-0.193 0.189-0.026 0-0.054-0.008-0.078-0.02l-2.461-1.2S4.701 12.264 0.016 8.499" fill-rule="evenodd"></path></g><g id="SvgjsG1646"><path d="M14.643 3.297L12.92 2.57c-0.7-0.265-0.057-0.792-0.963-1.24-0.4-0.19-1.898-0.515-1.898-0.515-0.352-0.122-1.376 0.23-1.376 0.935 0 0.7-0.172 0.755-0.172 0.755-0.734 1.576-0.294 0.874-0.645 2.42-0.014 0.08-0.06 0.295-0.265 0.7C6.875 7.06 5 8.704 3.398 9.627c-1.87 1.09-1.84 3.95-1.84 3.95-1.372-0.09-1.344-2.16-1.344-2.16-0.992 2.54 1.784 3.238 1.784 3.238 0.67 0.67 1.984 0.498 1.984 0.498 0.498-0.064 0.555 0.025 0.555 0.025s0.06 0.268 0.877 0.293c0.817 0.03 1.547-0.054 1.898 0.122 0.35 0.164 1.11 0.2 1.11 0.2 0.556 0.147 0.495-0.47 0.495-0.47-0.29-0.67-0.992-0.608-0.992-0.608l-1.372-0.06c1.927-0.61 1.604-1.748 1.604-1.748-0.168-0.646-0.77-0.75-1.192-0.764-0.068-0.007 0-0.086 0-0.086 1.178-0.34 2.245-1.117 2.245-1.117-0.028 0.587 0.527 1.49 0.788 1.9 0.265 0.413 0.702 2.078 0.702 2.078 0.322 0.352 0.437 0.646 0.437 0.646 0.265 0.175 1.17 0.14 1.17 0.14 0.234-0.03 0.29-0.11 0.29-0.11l0.033-0.564c-0.15-0.64-0.877-0.64-0.877-0.64l-0.763-3.267c-0.086-0.526 0.294-1.17 0.294-1.17 0.44-1.397-0.32-2.834-0.32-2.834-0.088-0.206 0.263-0.206 0.263-0.206s0.204-0.094 0.702-0.262c0.493-0.172 0.23-0.788 0.23-0.788l-0.264-0.873c-0.086-0.408 0.734 0.054 0.734 0.054 0.874 0.498 1.576-0.236 1.752-0.376 0.175-0.147 0.118-0.322 0.494-0.673 0.38-0.348-0.233-0.698-0.233-0.698" fill-rule="evenodd"></path></g><g id="SvgjsG1649"><path d="M8 14.66l5.904-5.908c1.836-1.836 1.8-4.512 0.132-6.174A4.268 4.268 0 0 0 8 2.58a4.264 4.264 0 0 0-6.03-0.02C0.3 4.24 0.26 6.92 2.1 8.744L8 14.66z"></path></g><g id="SvgjsG1651"><path d="M5.211 0h5.557v5.234H16v5.539H10.81V15.998h-5.578V10.773H0v-5.539h5.211z"></path></g><g id="SvgjsG1650"><path d="M1.658 6.512V3.299c0-0.456-0.373-0.826-0.832-0.827A0.827 0.827 0 0 0 0 3.299v4.399c0 0.608 0.219 1.196 0.611 1.655l2.744 2.913c0.272 0.255 0.339 0.483 0.339 0.827V13.624h2.986l0.003-1.262c0-0.481 0.04-1.123-0.562-1.753L2.641 7.114a0.657 0.657 0 0 0-0.46-0.185c-0.364 0-0.661 0.295-0.66 0.659 0 0.157 0.055 0.31 0.157 0.429L3.357 9.816c0.109 0.128 0.293 0.368 0.384 0.662 0.049 0.153 0.063 0.303 0.066 0.474h-0.54c-0.002-0.122-0.011-0.22-0.04-0.311-0.053-0.171-0.158-0.323-0.238-0.422L1.285 8.349c-0.214-0.216-0.331-0.496-0.331-0.791 0-0.442 0.265-0.848 0.705-1.048z m12.581 0V3.299c0-0.456 0.373-0.826 0.832-0.827a0.827 0.827 0 0 1 0.826 0.827v4.399c0 0.608-0.219 1.196-0.611 1.655L12.542 12.266c-0.272 0.256-0.339 0.483-0.339 0.827V13.624H9.218l-0.004-1.262c0-0.481-0.04-1.123 0.562-1.753l3.481-3.495a0.656 0.656 0 0 1 0.459-0.185c0.364 0 0.661 0.295 0.661 0.657a0.667 0.667 0 0 1-0.158 0.43l-1.679 1.798c-0.109 0.128-0.293 0.368-0.384 0.662-0.049 0.154-0.063 0.303-0.066 0.474h0.54c0.003-0.122 0.011-0.22 0.04-0.311 0.053-0.17 0.158-0.323 0.238-0.421L14.612 8.349c0.214-0.216 0.332-0.496 0.332-0.79 0-0.442-0.265-0.848-0.704-1.049z" fill-rule="evenodd"></path></g><g id="SvgjsG1652"><use xlink:href="#SvgjsG1646" transform="translate(0, 0) scale(2)" fill="rgba(124, 124, 125, 0.89)"></use><use xlink:href="#SvgjsG1646" transform="translate(0, 52) scale(2)" fill="rgba(124, 124, 125, 0.89)"></use><use xlink:href="#SvgjsG1647" transform="translate(0, 104) scale(2)" fill="rgba(124, 124, 125, 0.89)"></use><use xlink:href="#SvgjsG1647" transform="translate(0, 156) scale(2)" fill="rgba(124, 124, 125, 0.89)"></use><use xlink:href="#SvgjsG1647" transform="translate(0, 208) scale(2)" fill="rgba(124, 124, 125, 0.89)"></use><use xlink:href="#SvgjsG1648" transform="translate(0, 260) scale(2)" fill="rgba(124, 124, 125, 0.89)"></use><use xlink:href="#SvgjsG1649" transform="translate(0, 312) scale(2)" fill="rgba(124, 124, 125, 0.89)"></use><use xlink:href="#SvgjsG1648" transform="translate(0, 364) scale(2)" fill="rgba(124, 124, 125, 0.89)"></use><use xlink:href="#SvgjsG1650" transform="translate(0, 416) scale(2)" fill="rgba(124, 124, 125, 0.89)"></use><use xlink:href="#SvgjsG1646" transform="translate(0, 468) scale(2)" fill="rgba(124, 124, 125, 0.89)"></use><use xlink:href="#SvgjsG1646" transform="translate(52, 0) scale(2)" fill="rgba(124, 124, 125, 0.89)"></use><use xlink:href="#SvgjsG1651" transform="translate(52, 52) scale(2)" fill="rgba(124, 124, 125, 0.89)"></use><use xlink:href="#SvgjsG1646" transform="translate(52, 104) scale(2)" fill="rgba(124, 124, 125, 0.89)"></use><use xlink:href="#SvgjsG1649" transform="translate(52, 156) scale(2)" fill="rgba(124, 124, 125, 0.89)"></use><use xlink:href="#SvgjsG1650" transform="translate(52, 208) scale(2)" fill="rgba(124, 124, 125, 0.89)"></use><use xlink:href="#SvgjsG1646" transform="translate(52, 260) scale(2)" fill="rgba(124, 124, 125, 0.89)"></use><use xlink:href="#SvgjsG1647" transform="translate(52, 312) scale(2)" fill="rgba(124, 124, 125, 0.89)"></use><use xlink:href="#SvgjsG1648" transform="translate(52, 364) scale(2)" fill="rgba(124, 124, 125, 0.89)"></use><use xlink:href="#SvgjsG1647" transform="translate(52, 416) scale(2)" fill="rgba(124, 124, 125, 0.89)"></use><use xlink:href="#SvgjsG1651" transform="translate(52, 468) scale(2)" fill="rgba(124, 124, 125, 0.89)"></use><use xlink:href="#SvgjsG1648" transform="translate(104, 0) scale(2)" fill="rgba(124, 124, 125, 0.89)"></use><use xlink:href="#SvgjsG1649" transform="translate(104, 52) scale(2)" fill="rgba(124, 124, 125, 0.89)"></use><use xlink:href="#SvgjsG1650" transform="translate(104, 104) scale(2)" fill="rgba(124, 124, 125, 0.89)"></use><use xlink:href="#SvgjsG1648" transform="translate(104, 156) scale(2)" fill="rgba(124, 124, 125, 0.89)"></use><use xlink:href="#SvgjsG1651" transform="translate(104, 208) scale(2)" fill="rgba(124, 124, 125, 0.89)"></use><use xlink:href="#SvgjsG1651" transform="translate(104, 260) scale(2)" fill="rgba(124, 124, 125, 0.89)"></use><use xlink:href="#SvgjsG1648" transform="translate(104, 312) scale(2)" fill="rgba(124, 124, 125, 0.89)"></use><use xlink:href="#SvgjsG1648" transform="translate(104, 364) scale(2)" fill="rgba(124, 124, 125, 0.89)"></use><use xlink:href="#SvgjsG1651" transform="translate(104, 416) scale(2)" fill="rgba(124, 124, 125, 0.89)"></use><use xlink:href="#SvgjsG1648" transform="translate(104, 468) scale(2)" fill="rgba(124, 124, 125, 0.89)"></use><use xlink:href="#SvgjsG1651" transform="translate(156, 0) scale(2)" fill="rgba(124, 124, 125, 0.89)"></use><use xlink:href="#SvgjsG1648" transform="translate(156, 52) scale(2)" fill="rgba(124, 124, 125, 0.89)"></use><use xlink:href="#SvgjsG1648" transform="translate(156, 104) scale(2)" fill="rgba(124, 124, 125, 0.89)"></use><use xlink:href="#SvgjsG1650" transform="translate(156, 156) scale(2)" fill="rgba(124, 124, 125, 0.89)"></use><use xlink:href="#SvgjsG1648" transform="translate(156, 208) scale(2)" fill="rgba(124, 124, 125, 0.89)"></use><use xlink:href="#SvgjsG1647" transform="translate(156, 260) scale(2)" fill="rgba(124, 124, 125, 0.89)"></use><use xlink:href="#SvgjsG1650" transform="translate(156, 312) scale(2)" fill="rgba(124, 124, 125, 0.89)"></use><use xlink:href="#SvgjsG1650" transform="translate(156, 364) scale(2)" fill="rgba(124, 124, 125, 0.89)"></use><use xlink:href="#SvgjsG1649" transform="translate(156, 416) scale(2)" fill="rgba(124, 124, 125, 0.89)"></use><use xlink:href="#SvgjsG1651" transform="translate(156, 468) scale(2)" fill="rgba(124, 124, 125, 0.89)"></use><use xlink:href="#SvgjsG1648" transform="translate(208, 0) scale(2)" fill="rgba(124, 124, 125, 0.89)"></use><use xlink:href="#SvgjsG1651" transform="translate(208, 52) scale(2)" fill="rgba(124, 124, 125, 0.89)"></use><use xlink:href="#SvgjsG1650" transform="translate(208, 104) scale(2)" fill="rgba(124, 124, 125, 0.89)"></use><use xlink:href="#SvgjsG1649" transform="translate(208, 156) scale(2)" fill="rgba(124, 124, 125, 0.89)"></use><use xlink:href="#SvgjsG1646" transform="translate(208, 208) scale(2)" fill="rgba(124, 124, 125, 0.89)"></use><use xlink:href="#SvgjsG1649" transform="translate(208, 260) scale(2)" fill="rgba(124, 124, 125, 0.89)"></use><use xlink:href="#SvgjsG1646" transform="translate(208, 312) scale(2)" fill="rgba(124, 124, 125, 0.89)"></use><use xlink:href="#SvgjsG1646" transform="translate(208, 364) scale(2)" fill="rgba(124, 124, 125, 0.89)"></use><use xlink:href="#SvgjsG1651" transform="translate(208, 416) scale(2)" fill="rgba(124, 124, 125, 0.89)"></use><use xlink:href="#SvgjsG1648" transform="translate(208, 468) scale(2)" fill="rgba(124, 124, 125, 0.89)"></use><use xlink:href="#SvgjsG1648" transform="translate(260, 0) scale(2)" fill="rgba(124, 124, 125, 0.89)"></use><use xlink:href="#SvgjsG1650" transform="translate(260, 52) scale(2)" fill="rgba(124, 124, 125, 0.89)"></use><use xlink:href="#SvgjsG1646" transform="translate(260, 104) scale(2)" fill="rgba(124, 124, 125, 0.89)"></use><use xlink:href="#SvgjsG1651" transform="translate(260, 156) scale(2)" fill="rgba(124, 124, 125, 0.89)"></use><use xlink:href="#SvgjsG1647" transform="translate(260, 208) scale(2)" fill="rgba(124, 124, 125, 0.89)"></use><use xlink:href="#SvgjsG1649" transform="translate(260, 260) scale(2)" fill="rgba(124, 124, 125, 0.89)"></use><use xlink:href="#SvgjsG1651" transform="translate(260, 312) scale(2)" fill="rgba(124, 124, 125, 0.89)"></use><use xlink:href="#SvgjsG1650" transform="translate(260, 364) scale(2)" fill="rgba(124, 124, 125, 0.89)"></use><use xlink:href="#SvgjsG1646" transform="translate(260, 416) scale(2)" fill="rgba(124, 124, 125, 0.89)"></use><use xlink:href="#SvgjsG1651" transform="translate(260, 468) scale(2)" fill="rgba(124, 124, 125, 0.89)"></use><use xlink:href="#SvgjsG1649" transform="translate(312, 0) scale(2)" fill="rgba(124, 124, 125, 0.89)"></use><use xlink:href="#SvgjsG1650" transform="translate(312, 52) scale(2)" fill="rgba(124, 124, 125, 0.89)"></use><use xlink:href="#SvgjsG1650" transform="translate(312, 104) scale(2)" fill="rgba(124, 124, 125, 0.89)"></use><use xlink:href="#SvgjsG1647" transform="translate(312, 156) scale(2)" fill="rgba(124, 124, 125, 0.89)"></use><use xlink:href="#SvgjsG1650" transform="translate(312, 208) scale(2)" fill="rgba(124, 124, 125, 0.89)"></use><use xlink:href="#SvgjsG1646" transform="translate(312, 260) scale(2)" fill="rgba(124, 124, 125, 0.89)"></use><use xlink:href="#SvgjsG1651" transform="translate(312, 312) scale(2)" fill="rgba(124, 124, 125, 0.89)"></use><use xlink:href="#SvgjsG1649" transform="translate(312, 364) scale(2)" fill="rgba(124, 124, 125, 0.89)"></use><use xlink:href="#SvgjsG1651" transform="translate(312, 416) scale(2)" fill="rgba(124, 124, 125, 0.89)"></use><use xlink:href="#SvgjsG1647" transform="translate(312, 468) scale(2)" fill="rgba(124, 124, 125, 0.89)"></use><use xlink:href="#SvgjsG1651" transform="translate(364, 0) scale(2)" fill="rgba(124, 124, 125, 0.89)"></use><use xlink:href="#SvgjsG1648" transform="translate(364, 52) scale(2)" fill="rgba(124, 124, 125, 0.89)"></use><use xlink:href="#SvgjsG1649" transform="translate(364, 104) scale(2)" fill="rgba(124, 124, 125, 0.89)"></use><use xlink:href="#SvgjsG1647" transform="translate(364, 156) scale(2)" fill="rgba(124, 124, 125, 0.89)"></use><use xlink:href="#SvgjsG1650" transform="translate(364, 208) scale(2)" fill="rgba(124, 124, 125, 0.89)"></use><use xlink:href="#SvgjsG1646" transform="translate(364, 260) scale(2)" fill="rgba(124, 124, 125, 0.89)"></use><use xlink:href="#SvgjsG1648" transform="translate(364, 312) scale(2)" fill="rgba(124, 124, 125, 0.89)"></use><use xlink:href="#SvgjsG1650" transform="translate(364, 364) scale(2)" fill="rgba(124, 124, 125, 0.89)"></use><use xlink:href="#SvgjsG1646" transform="translate(364, 416) scale(2)" fill="rgba(124, 124, 125, 0.89)"></use><use xlink:href="#SvgjsG1646" transform="translate(364, 468) scale(2)" fill="rgba(124, 124, 125, 0.89)"></use><use xlink:href="#SvgjsG1648" transform="translate(416, 0) scale(2)" fill="rgba(124, 124, 125, 0.89)"></use><use xlink:href="#SvgjsG1647" transform="translate(416, 52) scale(2)" fill="rgba(124, 124, 125, 0.89)"></use><use xlink:href="#SvgjsG1650" transform="translate(416, 104) scale(2)" fill="rgba(124, 124, 125, 0.89)"></use><use xlink:href="#SvgjsG1650" transform="translate(416, 156) scale(2)" fill="rgba(124, 124, 125, 0.89)"></use><use xlink:href="#SvgjsG1651" transform="translate(416, 208) scale(2)" fill="rgba(124, 124, 125, 0.89)"></use><use xlink:href="#SvgjsG1649" transform="translate(416, 260) scale(2)" fill="rgba(124, 124, 125, 0.89)"></use><use xlink:href="#SvgjsG1646" transform="translate(416, 312) scale(2)" fill="rgba(124, 124, 125, 0.89)"></use><use xlink:href="#SvgjsG1647" transform="translate(416, 364) scale(2)" fill="rgba(124, 124, 125, 0.89)"></use><use xlink:href="#SvgjsG1646" transform="translate(416, 416) scale(2)" fill="rgba(124, 124, 125, 0.89)"></use><use xlink:href="#SvgjsG1649" transform="translate(416, 468) scale(2)" fill="rgba(124, 124, 125, 0.89)"></use><use xlink:href="#SvgjsG1651" transform="translate(468, 0) scale(2)" fill="rgba(124, 124, 125, 0.89)"></use><use xlink:href="#SvgjsG1651" transform="translate(468, 52) scale(2)" fill="rgba(124, 124, 125, 0.89)"></use><use xlink:href="#SvgjsG1650" transform="translate(468, 104) scale(2)" fill="rgba(124, 124, 125, 0.89)"></use><use xlink:href="#SvgjsG1647" transform="translate(468, 156) scale(2)" fill="rgba(124, 124, 125, 0.89)"></use><use xlink:href="#SvgjsG1650" transform="translate(468, 208) scale(2)" fill="rgba(124, 124, 125, 0.89)"></use><use xlink:href="#SvgjsG1651" transform="translate(468, 260) scale(2)" fill="rgba(124, 124, 125, 0.89)"></use><use xlink:href="#SvgjsG1650" transform="translate(468, 312) scale(2)" fill="rgba(124, 124, 125, 0.89)"></use><use xlink:href="#SvgjsG1646" transform="translate(468, 364) scale(2)" fill="rgba(124, 124, 125, 0.89)"></use><use xlink:href="#SvgjsG1651" transform="translate(468, 416) scale(2)" fill="rgba(124, 124, 125, 0.89)"></use><use xlink:href="#SvgjsG1651" transform="translate(468, 468) scale(2)" fill="rgba(124, 124, 125, 0.89)"></use></g></defs></svg>